<svg xmlns="http://www.w3.org/2000/svg" viewBox="0 0 24 24" fill="currentColor" shape-rendering="crispEdges"><rect x="2" y="4" width="20" height="2"/><rect x="2" y="6" width="2" height="2"/><rect x="6" y="6" width="2" height="2"/><rect x="10" y="6" width="2" height="2"/><rect x="14" y="6" width="2" height="2"/><rect x="20" y="6" width="2" height="2"/><rect x="2" y="8" width="12" height="2"/><rect x="16" y="8" width="6" height="2"/><rect x="2" y="10" width="2" height="2"/><rect x="6" y="10" width="2" height="2"/><rect x="10" y="10" width="2" height="2"/><rect x="14" y="10" width="2" height="2"/><rect x="20" y="10" width="2" height="2"/><rect x="2" y="12" width="12" height="2"/><rect x="16" y="12" width="6" height="2"/><rect x="2" y="14" width="2" height="2"/><rect x="8" y="14" width="8" height="2"/><rect x="20" y="14" width="2" height="2"/><rect x="2" y="16" width="20" height="2"/></svg>