<svg xmlns="http://www.w3.org/2000/svg" viewBox="0 0 64 64">
  <!-- Brand square -->
  <rect width="64" height="64" rx="14" fill="#000c19"/>
  <!-- Geometric JC monogram (site logo), scaled & centered. Source viewBox 0 0 94 70 -->
  <g transform="translate(10.4 15.9) scale(0.46)" fill="#fff">
    <rect x="12" y="0"  width="10" height="10" rx="2"/>
    <rect x="24" y="0"  width="10" height="10" rx="2"/>
    <rect x="36" y="0"  width="10" height="10" rx="2"/>
    <rect x="48" y="0"  width="10" height="10" rx="2"/>
    <rect x="60" y="0"  width="10" height="10" rx="2"/>
    <rect x="72" y="0"  width="10" height="10" rx="2"/>
    <rect x="84" y="0"  width="10" height="10" rx="2"/>
    <rect x="36" y="12" width="10" height="10" rx="2"/>
    <rect x="60" y="12" width="10" height="10" rx="2"/>
    <rect x="36" y="24" width="10" height="10" rx="2"/>
    <rect x="60" y="24" width="10" height="10" rx="2"/>
    <rect x="36" y="36" width="10" height="10" rx="2"/>
    <rect x="60" y="36" width="10" height="10" rx="2"/>
    <rect x="0"  y="48" width="10" height="10" rx="2"/>
    <rect x="36" y="48" width="10" height="10" rx="2"/>
    <rect x="60" y="48" width="10" height="10" rx="2"/>
    <rect x="12" y="60" width="10" height="10" rx="2"/>
    <rect x="24" y="60" width="10" height="10" rx="2"/>
    <rect x="72" y="60" width="10" height="10" rx="2"/>
    <rect x="84" y="60" width="10" height="10" rx="2"/>
  </g>
</svg>
