<svg preserveAspectRatio="none" width="100%" height="100%" overflow="visible" style="display: block;" viewBox="0 0 43.75 34.3866" fill="none" xmlns="http://www.w3.org/2000/svg">
<path id="Vector" d="M43.2031 21.8565C43.0727 21.4924 42.9194 21.1368 42.7441 20.792L34.6211 2.31156C34.5442 2.13356 34.4342 1.97183 34.2969 1.83499C33.7165 1.25448 33.0274 0.793977 32.2691 0.479796C31.5107 0.165615 30.6978 0.00390634 29.877 0.00390634C29.0561 0.00390634 28.2432 0.165615 27.4849 0.479796C26.7265 0.793977 26.0374 1.25448 25.457 1.83499C25.165 2.12731 25.0007 2.52338 25 2.93656V7.81937H18.75V2.93656C18.7502 2.73131 18.7099 2.52803 18.6315 2.33835C18.553 2.14867 18.438 1.9763 18.293 1.83109C17.7126 1.25057 17.0235 0.790071 16.2651 0.475889C15.5068 0.161708 14.6939 0 13.873 0C13.0522 0 12.2393 0.161708 11.4809 0.475889C10.7226 0.790071 10.0335 1.25057 9.45313 1.83109C9.31579 1.96792 9.20575 2.12966 9.12891 2.30765L1.00586 20.7881C0.83064 21.1329 0.677341 21.4885 0.546876 21.8526C0.0869145 23.1396 -0.0860951 24.5115 0.0399663 25.8724C0.166028 27.2333 0.588111 28.5502 1.27665 29.7308C1.96519 30.9114 2.90353 31.9271 4.02594 32.7069C5.14835 33.4867 6.42768 34.0117 7.77432 34.245C9.12096 34.4784 10.5023 34.4145 11.8217 34.0578C13.141 33.7011 14.3664 33.0603 15.4121 32.1802C16.4577 31.3001 17.2982 30.202 17.8748 28.9629C18.4514 27.7238 18.7501 26.3736 18.75 25.0069V10.9444H25V25.0069C24.9993 26.3737 25.2975 27.7242 25.8737 28.9637C26.45 30.2032 27.2902 31.3017 28.3357 32.1822C29.3812 33.0627 30.6066 33.704 31.926 34.0611C33.2454 34.4181 34.6269 34.4824 35.9738 34.2493C37.3206 34.0162 38.6002 33.4914 39.7229 32.7117C40.8455 31.932 41.7841 30.9162 42.4729 29.7355C43.1616 28.5548 43.5838 27.2379 43.71 25.8768C43.8361 24.5158 43.6631 23.1436 43.2031 21.8565ZM11.8574 3.86429C12.3784 3.42566 13.0283 3.16921 13.7084 3.13395C14.3885 3.0987 15.0615 3.28657 15.625 3.66898V18.0264C14.4051 16.931 12.9187 16.1754 11.3148 15.8354C9.7109 15.4953 8.0458 15.5828 6.48633 16.0889L11.8574 3.86429ZM9.375 31.2569C8.13887 31.2569 6.93049 30.8903 5.90269 30.2036C4.87488 29.5168 4.0738 28.5407 3.60075 27.3986C3.12771 26.2566 3.00394 24.9999 3.24509 23.7876C3.48625 22.5752 4.08151 21.4615 4.95558 20.5875C5.82966 19.7134 6.94331 19.1181 8.15569 18.877C9.36807 18.6358 10.6247 18.7596 11.7668 19.2326C12.9088 19.7057 13.8849 20.5067 14.5717 21.5346C15.2584 22.5624 15.625 23.7707 15.625 25.0069C15.625 26.6645 14.9665 28.2542 13.7944 29.4263C12.6223 30.5984 11.0326 31.2569 9.375 31.2569ZM28.125 3.66703C28.6885 3.28461 29.3615 3.09675 30.0416 3.132C30.7217 3.16726 31.3716 3.42371 31.8926 3.86234L37.2637 16.085C35.704 15.5791 34.0388 15.492 32.4349 15.8324C30.831 16.1728 29.3447 16.9287 28.125 18.0244V3.66703ZM34.375 31.2569C33.1389 31.2569 31.9305 30.8903 30.9027 30.2036C29.8749 29.5168 29.0738 28.5407 28.6008 27.3986C28.1277 26.2566 28.0039 24.9999 28.2451 23.7876C28.4862 22.5752 29.0815 21.4615 29.9556 20.5875C30.8297 19.7134 31.9433 19.1181 33.1557 18.877C34.3681 18.6358 35.6247 18.7596 36.7668 19.2326C37.9088 19.7057 38.8849 20.5067 39.5717 21.5346C40.2584 22.5624 40.625 23.7707 40.625 25.0069C40.625 26.6645 39.9665 28.2542 38.7944 29.4263C37.6223 30.5984 36.0326 31.2569 34.375 31.2569Z" fill="url(#paint0_linear_0_20)"/>
<defs>
<linearGradient id="paint0_linear_0_20" x1="21.8934" y1="6.03595" x2="21.8934" y2="34.3866" gradientUnits="userSpaceOnUse">
<stop stop-color="#9A8651"/>
<stop offset="1" stop-color="#CAB479"/>
</linearGradient>
</defs>
</svg>
